/* XPM */
static char *guayadeque[] = {
/* columns rows colors chars-per-pixel */
"32 32 153 2",
"   c #1D1817",
".  c #221D1B",
"X  c #26221C",
"o  c #2D2C1A",
"O  c #31311F",
"+  c #383B1D",
"@  c #272220",
"#  c #2A2523",
"$  c #2D2926",
"%  c #2F2A28",
"&  c #322D2B",
"*  c #343423",
"=  c #35312D",
"-  c #3B3B2B",
";  c #373231",
":  c #3A3533",
">  c #3E3A37",
",  c #3F3A38",
"<  c #423D3B",
"1  c #3D431C",
"2  c #42442B",
"3  c #4C4E36",
"4  c #45403E",
"5  c #59642C",
"6  c #596132",
"7  c #5E6A30",
"8  c #65742C",
"9  c #697B2D",
"0  c #504C4A",
"q  c #595653",
"w  c #625E5D",
"e  c #5E604B",
"r  c #6E6A69",
"t  c #7C7976",
"y  c #748C27",
"u  c #73892A",
"i  c #76873A",
"p  c #77893A",
"a  c #7D913B",
"s  c #768050",
"d  c #839B36",
"f  c #839A3A",
"g  c #8CAF24",
"h  c #8EB126",
"j  c #90B427",
"k  c #8EAE30",
"l  c #89A03F",
"z  c #96B33F",
"x  c #9BBB3A",
"c  c #9AC128",
"v  c #9FC828",
"b  c #A2CD25",
"n  c #A5CF2A",
"m  c #A4D027",
"M  c #A6D02D",
"N  c #A5CC33",
"B  c #A7D030",
"V  c #A9D135",
"C  c #ACD33C",
"Z  c #A1BF45",
"A  c #ABB972",
"S  c #AACB48",
"D  c #AFD441",
"F  c #AED049",
"G  c #B1D645",
"H  c #B3D847",
"J  c #B3D74C",
"K  c #B4D84D",
"L  c #B5D750",
"P  c #B6D853",
"I  c #B8D955",
"U  c #BADA5A",
"Y  c #BFDD64",
"T  c #C2DE67",
"R  c #C3DF6B",
"E  c #C4DF73",
"W  c #C3E067",
"Q  c #C5E06E",
"!  c #C6E074",
"~  c #C8E27B",
"^  c #0084C5",
"/  c #0A8BC7",
"(  c #008CCE",
")  c #0B8CC9",
"_  c #138DC8",
"`  c #1691CB",
"'  c #1B92CB",
"]  c #008ED1",
"[  c #0092D6",
"{  c #228FC4",
"}  c #2496CC",
"|  c #2A97CB",
" . c #2E99CD",
".. c #319ACC",
"X. c #399ECF",
"o. c #479FCB",
"O. c #5CA6CC",
"+. c #5CA9CF",
"@. c #44A4D5",
"#. c #53A9D2",
"$. c #5CADD2",
"%. c #64B2D4",
"&. c #6CB5D5",
"*. c #71B8D6",
"=. c #7FBED6",
"-. c #868482",
";. c #8E8E8D",
":. c #949392",
">. c #A19F9E",
",. c #A5A3A3",
"<. c #A8A7A5",
"1. c #B2B1B0",
"2. c #C7E180",
"3. c #CBE383",
"4. c #CDE58C",
"5. c #C9E29F",
"6. c #D1E692",
"7. c #D5E89D",
"8. c #CFE5A5",
"9. c #CCE4AC",
"0. c #D3E7A3",
"q. c #D1E6AD",
"w. c #D4E8AD",
"e. c #D9E9AD",
"r. c #CBE3B0",
"t. c #CBE4BC",
"y. c #D4E8B0",
"u. c #DFECB9",
"i. c #E0EDBA",
"p. c #82BBD3",
"a. c #85C4DB",
"s. c #89C6D9",
"d. c #9ECDD4",
"f. c #95C6DD",
"g. c #B6D7CA",
"h. c #B6D9CE",
"j. c #B8DACB",
"k. c #A5CFDC",
"l. c #A9D3D3",
"z. c #CECDCC",
"x. c #DEDDDD",
"c. c #C5E0C4",
"v. c #CAE2C5",
"b. c #C3E0CA",
"n. c #CAE3CC",
"m. c #E7EFCF",
"M. c #E6E9DD",
"N. c #EAEFDB",
"B. c #D7E8E6",
"V. c #E5E5E4",
"C. c #E8EBE0",
"Z. c #EFF1E9",
"A. c None",
/* pixels */
"A.A.A.A.A.A.A.A.A.A.A.A.A.A.A.A.V.x.x.A.A.A.A.A.A.A.A.A.A.A.A.A.",
"A.A.A.A.A.A.A.A.A.A.A.A.A.A.A.A.1.t -.>.z.A.A.A.A.A.A.A.A.A.A.A.",
"A.A.A.A.A.A.A.A.A.A.A.A.A.A.A.p.;.0 4 < q <.V.A.A.A.A.A.A.A.A.A.",
"A.A.A.A.A.A.A.A.A.A.A.[ [ [ ( $.;.4 4 < > < <.A.A.A.A.A.A.A.A.A.",
"A.A.A.A.A.A.A.A.A.[ [ [ [ ] ( $.;.< < > ; = 0 z.A.A.A.A.A.A.A.A.",
"A.A.A.A.A.A.A.A.[ [ [ [ ] ( ^ $.;.> < : ; = & :.A.A.A.A.A.A.A.A.",
"A.A.A.A.A.A.[ [ [ [ ] ( ` @.%.k.;.- > ; ; ; = t f.A.A.A.A.A.A.A.",
"A.A.A.A.A.A.[ [ [ ( ` &.g.8.~ E r - - - p f d A s.( A.A.A.A.A.A.",
"A.A.A.A.A.[ [ [ (  .l.4.G n b b 9 ; & - j m m T s.] [ A.A.A.A.A.",
"A.A.A.A.[ [ [ ( | h.Q N n n b n 8 & & - j m b T s.( [ A.A.A.A.A.",
"A.A.A.A.[ [ ] ) d.! V B B M n v 8 & & * j b b T s.( [ [ A.A.A.A.",
"A.A.A.A.[ [ ( #.0.D C V V k 9 5 2 % # * j b b T s.] [ [ A.A.A.A.",
"A.A.A.[ [ [ / d.R D C C d e w ; % # # * g b b T s.( [ [ A.A.A.A.",
"A.A.A.[ [ ] ' c.P D D x 3 ,.V.q # # @ o j m b T s.] [ [ A.A.A.A.",
"A.A.A.[ [ ( ..r.J G G a ; r :.< # . . o g b b T s.] [ [ A.A.A.A.",
"A.A.A.[ [ ( X.9.K J H i & % % # @ . . o j m b T s.( [ [ A.A.A.A.",
"A.A.A.[ [ ] | r.I J K l = # # X . .   1 c b b T s.( [ [ A.A.A.A.",
"A.A.A.[ [ ] _ g.Y P J S 6 # @ . .   X y M n b T s.] [ [ A.A.A.A.",
"A.A.A.A.[ [ ^ a.4.P J J S 6 * X X + u N M n n T s.( [ [ A.A.A.A.",
"A.A.A.A.[ [ ( ..v.Y P P K F z d d x C V V V n T s.( [ [ A.A.A.A.",
"A.A.A.A.[ [ [ ( &.q.U P P J J G G C C C V V m Q s.( [ A.A.A.A.A.",
"A.A.A.A.A.[ [ ] / =.w.R P P J J G G C C C V B Q s.] [ A.A.A.A.A.",
"A.A.A.A.A.[ [ [ ( / %.b.6.R U I P I ~ ! C C V ! s.( A.A.A.A.A.A.",
"A.A.A.A.A.A.[ [ [ ] ( } *.l.c.t.t.j.B.6.C C V 3.a.A.A.A.A.A.A.A.",
"A.A.A.A.A.A.A.[ [ [ [ ] ( ) ' } { O.v.U D D C 0.A.A.A.A.A.A.A.A.",
"A.A.A.A.A.A.A.A.[ [ [ [ [ [ ] ( | n.R J G D U m.A.A.A.A.A.A.A.A.",
"A.A.A.A.A.A.A.A.A.A.[ [ [ [ [ ( X.9.P J J F 7.V.A.A.A.A.A.A.A.A.",
"A.A.A.A.A.A.A.A.A.A.A.A.A.[ [ ( o.q.I K K 3.N.A.A.A.A.A.A.A.A.A.",
"A.A.A.A.A.A.A.A.A.A.A.A.A.A.A.A.A.e.I U 6.N.A.A.A.A.A.A.A.A.A.A.",
"A.A.A.A.A.A.A.A.A.A.A.A.A.A.A.A.A.u.4.u.C.A.A.A.A.A.A.A.A.A.A.A.",
"A.A.A.A.A.A.A.A.A.A.A.A.A.A.A.A.A.Z.M.A.A.A.A.A.A.A.A.A.A.A.A.A.",
"A.A.A.A.A.A.A.A.A.A.A.A.A.A.A.A.A.A.A.A.A.A.A.A.A.A.A.A.A.A.A.A."
};
